<svg width="382" height="292" viewBox="0 0 382 292" fill="none" xmlns="http://www.w3.org/2000/svg">
<g clip-path="url(#clip0_110_3)">
<path d="M370.595 232.243C272.433 484.194 143.763 -186.931 15.5532 56.1869C-89.0579 254.548 456.572 11.5778 370.595 232.243Z" stroke="#1D2F6F" stroke-width="5" stroke-miterlimit="10" stroke-linecap="round"/>
<path d="M367.037 225.529C271.14 471.704 145.959 -181.051 21.6893 54.2761C-80.1877 247.156 450.661 10.8743 367.037 225.529V225.529Z" stroke="#1D2F6F" stroke-width="5" stroke-miterlimit="10" stroke-linecap="round"/>
<path d="M363.478 218.807C269.847 459.215 148.163 -175.17 27.8256 52.3653C-71.3348 239.756 444.742 10.1795 363.478 218.807Z" stroke="#1D2F6F" stroke-width="5" stroke-miterlimit="10" stroke-linecap="round"/>
<path d="M359.929 212.093C268.553 446.725 150.359 -169.29 33.9531 50.4545C-62.4647 232.365 438.832 9.48466 359.929 212.093Z" stroke="#1D2F6F" stroke-width="5" stroke-miterlimit="10" stroke-linecap="round"/>
<path d="M356.37 205.379C267.26 434.235 152.564 -163.402 40.0895 48.5436C-53.603 224.973 432.913 8.78111 356.37 205.379Z" stroke="#1D2F6F" stroke-width="5" stroke-miterlimit="10" stroke-linecap="round"/>
<path d="M352.812 198.656C265.976 421.736 154.76 -157.521 46.2257 46.6328C-44.7415 217.573 427.002 8.08629 352.812 198.656Z" stroke="#1D2F6F" stroke-width="5" stroke-miterlimit="10" stroke-linecap="round"/>
<path d="M349.253 191.942C264.683 409.246 156.964 -151.641 52.3619 44.7219C-35.88 210.182 421.083 7.39139 349.253 191.942Z" stroke="#1D2F6F" stroke-width="5" stroke-miterlimit="10" stroke-linecap="round"/>
<path d="M345.695 185.228C263.389 396.757 159.16 -145.761 58.4895 42.8111C-27.0185 202.791 415.172 6.68785 345.695 185.228Z" stroke="#1D2F6F" stroke-width="5" stroke-miterlimit="10" stroke-linecap="round"/>
<path d="M342.136 178.506C262.096 384.267 161.365 -139.881 64.6258 40.8916C-18.1569 195.39 409.253 5.99302 342.136 178.506Z" stroke="#1D2F6F" stroke-width="5" stroke-miterlimit="10" stroke-linecap="round"/>
<path d="M338.578 171.792C260.803 371.777 163.561 -134.001 70.762 38.9808C-9.29548 187.999 403.342 5.2982 338.578 171.792Z" stroke="#1D2F6F" stroke-width="5" stroke-miterlimit="10" stroke-linecap="round"/>
<path d="M335.028 165.078C259.51 359.287 165.765 -128.121 76.8981 37.07C-0.434015 180.599 397.432 4.59469 335.028 165.078Z" stroke="#1D2F6F" stroke-width="5" stroke-miterlimit="10" stroke-linecap="round"/>
<path d="M331.469 158.355C258.217 346.797 167.961 -122.232 83.0259 35.1591C8.42767 173.208 391.513 3.8998 331.469 158.355Z" stroke="#1D2F6F" stroke-width="5" stroke-miterlimit="10" stroke-linecap="round"/>
<path d="M327.911 151.641C256.923 334.299 170.165 -116.352 89.1619 33.2483C17.289 165.816 385.602 3.20499 327.911 151.641Z" stroke="#1D2F6F" stroke-width="5" stroke-miterlimit="10" stroke-linecap="round"/>
<path d="M324.352 144.927C255.63 321.809 172.361 -110.472 95.2982 31.3375C26.1506 158.416 379.683 2.50144 324.352 144.927Z" stroke="#1D2F6F" stroke-width="5" stroke-miterlimit="10" stroke-linecap="round"/>
<path d="M320.794 138.205C254.345 309.319 174.557 -104.592 101.426 29.4267C35.0121 151.025 373.772 1.8066 320.794 138.205Z" stroke="#1D2F6F" stroke-width="5" stroke-miterlimit="10" stroke-linecap="round"/>
<path d="M317.235 131.491C253.052 296.829 176.762 -98.7114 107.562 27.5159C43.8736 143.633 367.853 1.11176 317.235 131.491Z" stroke="#1D2F6F" stroke-width="5" stroke-miterlimit="10" stroke-linecap="round"/>
<path d="M313.686 124.768C251.759 284.339 178.958 -92.8313 113.698 25.605C52.7353 136.233 361.942 0.408201 313.686 124.768Z" stroke="#1D2F6F" stroke-width="5" stroke-miterlimit="10" stroke-linecap="round"/>
</g>
<defs>
<clipPath id="clip0_110_3">
<rect width="382" height="292" fill="white"/>
</clipPath>
</defs>
</svg>
