<svg width="715" height="715" viewBox="0 0 715 715" fill="none" xmlns="http://www.w3.org/2000/svg">
<path d="M151.155 182.857C221.089 182.857 276.55 311.439 387.602 314.996C389.159 315.039 390.702 315.068 392.245 315.068C502.925 315.068 559.873 187.458 615.049 187.472C619.506 187.472 623.964 188.315 628.435 190.115C693.969 216.603 703.713 427.977 623.978 475.538C614.12 481.424 604.648 483.753 594.918 483.753C557.887 483.753 517.241 449.978 437.72 449.978C433.52 449.978 429.205 450.079 424.776 450.279C304.038 455.708 261.006 531.499 197.33 531.499C189.301 531.499 180.929 530.299 172.056 527.585C97.8934 504.997 45.0893 395.603 62.0478 301.624C65.1194 284.594 79.9206 202.645 133.411 185.672C139.468 183.757 145.369 182.872 151.169 182.872M151.169 178.543C144.811 178.543 138.382 179.557 132.096 181.557C96.0076 193.015 69.6055 235.376 57.7903 300.867C49.5325 346.613 57.2617 398.517 78.992 443.278C100.894 488.396 134.353 520.641 170.799 531.728C179.857 534.485 188.543 535.828 197.344 535.828C225.932 535.828 250.105 521.441 278.108 504.769C315.211 482.681 357.271 457.651 424.976 454.607C429.248 454.422 433.534 454.322 437.735 454.322C484.267 454.322 517.555 466.165 544.3 475.695C563.016 482.352 579.174 488.11 594.947 488.11C606.034 488.11 616.263 485.224 626.221 479.281C673.396 451.136 689.283 370.872 684.111 303.795C680.425 255.977 664.295 199.959 630.078 186.129C625.235 184.172 620.178 183.172 615.077 183.172C590.532 183.172 566.659 205.716 539.014 231.818C501.783 266.993 455.436 310.767 392.274 310.767C390.774 310.767 389.259 310.739 387.774 310.696C327.94 308.782 284.108 269.093 245.434 234.076C212.531 204.288 184.115 178.557 151.198 178.557L151.169 178.543Z" fill="#1D2F6F"/>
<path d="M153.669 192.358C221.303 192.358 276.05 316.125 383.559 318.725C384.702 318.754 385.83 318.768 386.959 318.768C495.225 318.768 549.672 193.315 603.448 193.315C607.691 193.315 611.92 194.101 616.177 195.773C679.939 220.96 690.997 425.891 614.02 472.637C604.348 478.509 595.033 480.824 585.432 480.824C549.972 480.824 510.712 449.25 435.306 449.25C430.563 449.25 425.662 449.378 420.633 449.636C303.181 455.836 262.135 530.142 200.044 530.142C192.444 530.142 184.514 529.028 176.114 526.542C104.008 505.197 51.9611 399.503 67.7052 308.224C70.5626 291.68 84.278 212.088 136.025 195.215C142.025 193.258 147.897 192.358 153.669 192.358M153.669 188.029C147.326 188.029 140.94 189.058 134.682 191.101C99.7078 202.502 74.4058 243.834 63.4335 307.481C55.7614 351.942 63.6621 402.26 85.0923 445.521C106.694 489.139 139.425 520.184 174.885 530.685C183.486 533.228 191.715 534.471 200.044 534.471C228.089 534.471 251.605 520.213 278.85 503.711C314.653 482.01 355.242 457.422 420.847 453.965C425.691 453.707 430.548 453.579 435.291 453.579C479.295 453.579 511.112 464.623 536.671 473.495C554.701 479.752 570.274 485.153 585.432 485.153C596.404 485.153 606.491 482.267 616.263 476.338C661.838 448.664 676.668 370.629 671.139 305.581C667.196 259.192 651.109 204.931 617.763 191.758C613.12 189.929 608.305 189.001 603.448 189.001C579.474 189.001 556.387 211.145 529.656 236.804C493.596 271.393 448.721 314.453 386.959 314.453C385.859 314.453 384.759 314.453 383.659 314.411C325.654 313.011 282.865 274.865 245.105 241.219C213.102 212.688 185.457 188.043 153.669 188.043V188.029Z" fill="#1D2F6F"/>
<path d="M591.875 199.144C595.89 199.144 599.905 199.873 603.948 201.43C665.938 225.318 678.311 423.805 604.091 469.723C594.604 475.595 585.446 477.895 575.974 477.895C542.086 477.895 504.226 448.507 432.906 448.507C427.634 448.507 422.162 448.664 416.519 449.007C302.367 455.993 263.321 528.799 202.787 528.799C195.615 528.799 188.129 527.77 180.186 525.499C110.152 505.397 58.8618 403.403 73.363 314.825C75.9917 298.767 88.6499 221.532 138.654 204.773C144.611 202.773 150.426 201.859 156.17 201.859C221.489 201.859 275.55 320.797 379.501 322.454C380.23 322.454 380.944 322.468 381.673 322.468C487.524 322.468 539.457 199.144 591.847 199.159M591.847 194.83C568.445 194.83 546.143 216.589 520.327 241.776C485.453 275.793 442.049 318.139 381.673 318.139C380.973 318.139 380.273 318.139 379.573 318.125C323.411 317.239 281.651 280.637 244.805 248.348C213.688 221.075 186.829 197.53 156.17 197.53C149.84 197.53 143.483 198.587 137.268 200.673C103.422 212.017 79.2063 252.306 69.0769 314.125C62.0049 357.3 70.0627 406.018 91.193 447.793C112.495 489.925 144.497 519.755 178.971 529.656C187.115 531.985 194.887 533.128 202.759 533.128C230.261 533.128 253.134 519.013 279.608 502.668C314.111 481.367 353.228 457.222 416.747 453.336C422.162 453.007 427.591 452.836 432.877 452.836C474.38 452.836 504.711 463.08 529.085 471.309C546.429 477.166 561.402 482.224 575.946 482.224C586.818 482.224 596.747 479.338 606.334 473.409C650.323 446.192 664.081 370.401 658.195 307.367C653.995 262.407 637.936 209.917 605.462 197.401C601.033 195.701 596.447 194.83 591.833 194.83H591.847Z" fill="#1D2F6F"/>
<path d="M580.275 204.973C584.061 204.973 587.861 205.645 591.704 207.074C651.923 229.675 665.61 421.719 594.161 466.808C584.846 472.68 575.846 474.966 566.502 474.966C534.171 474.966 497.74 447.735 430.477 447.735C424.691 447.735 418.648 447.935 412.39 448.378C301.524 456.15 264.493 527.47 205.531 527.47C198.787 527.47 191.744 526.542 184.272 524.47C116.295 505.611 65.7625 407.304 79.0493 321.44C81.4638 305.867 93.0504 230.99 141.311 214.331C147.226 212.288 152.998 211.36 158.713 211.36C221.761 211.36 275.093 325.483 375.501 326.183C375.816 326.183 376.116 326.183 376.43 326.183C479.881 326.183 529.285 204.988 580.303 204.988M580.303 200.659C557.473 200.659 535.957 222.032 511.041 246.777C477.352 280.222 435.435 321.854 376.43 321.854H375.544C321.211 321.468 280.494 286.423 244.577 255.492C215.617 230.561 188.272 207.031 158.741 207.031C152.427 207.031 146.097 208.116 139.926 210.245C107.209 221.532 84.0783 260.792 74.8061 320.768C68.3199 362.643 76.5491 409.775 97.3793 450.064C118.381 490.696 149.641 519.341 183.143 528.628C190.715 530.728 198.244 531.785 205.545 531.785C232.519 531.785 254.72 517.798 280.437 501.611C313.639 480.695 351.285 456.993 412.704 452.693C418.676 452.279 424.662 452.064 430.491 452.064C469.523 452.064 498.382 461.522 521.556 469.123C538.2 474.58 552.587 479.295 566.516 479.295C577.274 479.295 587.075 476.409 596.49 470.48C638.894 443.721 651.58 370.172 645.337 309.167C640.879 265.635 624.864 214.903 593.261 203.045C589.047 201.459 584.689 200.659 580.317 200.659H580.303Z" fill="#1D2F6F"/>
<path d="M568.688 210.802C572.259 210.802 575.845 211.417 579.46 212.731C637.908 234.033 652.909 419.633 584.218 463.894C575.088 469.78 566.245 472.037 557.015 472.037C526.242 472.037 491.253 446.935 428.019 446.935C421.719 446.935 415.133 447.178 408.246 447.735C300.695 456.293 265.664 526.127 208.245 526.127C201.916 526.127 195.33 525.284 188.329 523.413C122.424 505.797 72.6485 411.19 84.7066 328.026C86.8925 312.953 97.4076 240.433 143.94 223.875C149.797 221.789 155.541 220.832 161.227 220.832C221.932 220.832 274.464 329.883 371.129 329.883C371.229 329.883 371.358 329.883 371.458 329.883C472.337 329.626 519.098 210.788 568.702 210.802M568.702 206.473C546.443 206.473 525.713 227.461 501.711 251.748C469.28 284.565 428.934 325.411 371.458 325.554H371.144C318.797 325.554 279.208 292.123 244.276 262.621C216.188 238.905 189.658 216.503 161.241 216.503C154.941 216.503 148.64 217.603 142.511 219.789C110.923 231.033 88.8784 269.236 80.4491 327.397C74.563 367.986 82.9493 413.518 103.48 452.321C124.181 491.467 154.712 518.898 187.229 527.585C194.43 529.513 201.316 530.442 208.259 530.442C234.704 530.442 256.249 516.584 281.208 500.54C313.125 480.024 349.285 456.765 408.618 452.036C415.147 451.521 421.69 451.25 428.048 451.25C464.637 451.25 492.01 459.936 513.998 466.923C529.956 471.98 543.729 476.352 557.044 476.352C567.716 476.352 577.374 473.466 586.589 467.523C627.407 441.221 639.008 369.929 632.407 310.925C627.692 268.836 611.705 219.86 580.974 208.659C576.974 207.202 572.86 206.459 568.731 206.459V210.788V206.459L568.702 206.473Z" fill="#1D2F6F"/>
<path d="M557.087 216.631C560.43 216.631 563.802 217.189 567.202 218.403C623.878 238.405 640.179 417.576 574.26 461.008C565.316 466.894 556.615 469.137 547.486 469.137C518.269 469.137 484.767 446.135 425.519 446.135C418.733 446.135 411.59 446.435 404.089 447.107C299.824 456.479 266.835 524.799 210.945 524.799C205.045 524.799 198.901 524.042 192.387 522.37C128.539 506.012 79.5206 415.09 90.3643 334.627C92.3216 320.04 101.779 249.877 146.569 233.418C152.383 231.29 158.084 230.318 163.727 230.318C221.903 230.318 273.507 333.626 365.815 333.626C366.343 333.626 366.872 333.626 367.386 333.626C465.051 332.383 509.04 216.631 557.073 216.646M557.073 212.317C535.371 212.317 515.426 232.918 492.339 256.763C461.351 288.766 422.791 328.597 367.329 329.312C366.829 329.312 366.315 329.312 365.815 329.312C315.911 329.312 277.679 297.681 243.948 269.779C216.731 247.262 191.029 226.004 163.727 226.004C157.441 226.004 151.169 227.132 145.069 229.375C114.609 240.562 93.6645 277.736 86.0782 334.055C80.7921 373.358 89.3499 417.29 109.566 454.607C129.967 492.253 159.77 518.484 191.315 526.57C197.958 528.27 204.559 529.142 210.96 529.142C236.89 529.142 257.778 515.412 281.951 499.511C312.568 479.381 347.256 456.565 404.489 451.421C411.575 450.779 418.647 450.464 425.534 450.464C459.693 450.464 485.581 458.393 506.383 464.765C521.627 469.437 534.799 473.466 547.5 473.466C558.073 473.466 567.616 470.566 576.646 464.623C615.877 438.778 626.407 369.729 619.435 312.753C614.463 272.093 598.504 224.875 568.645 214.331C564.873 213.003 560.973 212.317 557.087 212.317H557.073Z" fill="#1D2F6F"/>
<path d="M545.486 222.46C548.615 222.46 551.772 222.975 554.958 224.061C609.862 242.776 627.478 415.49 564.33 458.093C555.572 464.008 547.015 466.223 538 466.223C510.34 466.223 478.352 445.292 423.048 445.292C415.776 445.292 408.104 445.65 399.989 446.478C299.024 456.665 268.078 523.484 213.688 523.484C208.216 523.484 202.502 522.813 196.473 521.327C134.682 506.211 86.4353 418.99 96.036 341.227C97.779 327.126 106.151 259.321 149.212 242.976C154.984 240.79 160.641 239.79 166.256 239.79C221.917 239.79 272.536 337.37 360.543 337.37C361.471 337.37 362.429 337.37 363.357 337.341C457.807 335.112 499.011 222.446 545.486 222.46M545.486 218.132C524.341 218.132 505.197 238.347 483.024 261.749C453.479 292.937 416.704 331.755 363.257 333.026C362.357 333.041 361.443 333.055 360.543 333.055C313.039 333.055 276.179 303.224 243.662 276.922C217.317 255.606 192.444 235.49 166.256 235.49C159.984 235.49 153.726 236.662 147.669 238.947C118.338 250.077 98.4791 286.223 91.75 340.713C87.0496 378.73 95.7789 421.076 115.709 456.879C135.811 493.025 164.884 518.055 195.444 525.542C201.616 527.056 207.759 527.813 213.688 527.813C239.119 527.813 259.335 514.198 282.736 498.439C312.053 478.709 345.284 456.336 400.417 450.778C408.046 450.007 415.661 449.621 423.048 449.621C454.822 449.621 479.223 456.808 498.825 462.579C513.369 466.865 525.913 470.551 538 470.551C548.643 470.551 557.773 467.737 566.759 461.679C604.39 436.292 613.848 369.472 606.519 314.525C601.29 275.293 585.36 229.847 556.372 219.96C552.815 218.746 549.158 218.132 545.514 218.132H545.486Z" fill="#1D2F6F"/>
<path d="M533.9 228.275C536.8 228.275 539.743 228.732 542.715 229.704C595.847 247.12 614.777 413.39 554.387 455.179C545.815 461.108 537.4 463.322 528.471 463.322C502.369 463.322 471.909 444.421 420.533 444.421C412.804 444.421 404.589 444.849 395.86 445.835C298.195 456.836 269.321 522.17 216.417 522.17C211.374 522.17 206.102 521.57 200.545 520.284C140.826 506.412 93.3218 422.891 101.708 347.828C103.223 334.226 110.537 268.764 151.841 252.534C157.555 250.291 163.185 249.277 168.771 249.277C221.932 249.277 271.522 341.141 355.257 341.141C356.6 341.141 357.957 341.113 359.314 341.07C450.536 337.841 488.953 228.261 533.885 228.275M533.885 223.946C513.284 223.946 494.939 243.776 473.681 266.75C445.578 297.124 410.604 334.927 359.157 336.741C357.843 336.784 356.543 336.812 355.243 336.812C310.139 336.812 274.65 308.782 243.334 284.051C217.875 263.935 193.83 244.948 168.756 244.948C162.484 244.948 156.255 246.148 150.241 248.505C122.038 259.592 103.265 294.695 97.3936 347.342C93.2933 384.073 102.194 424.819 121.81 459.136C141.626 493.796 169.956 517.612 199.545 524.484C205.245 525.813 210.917 526.485 216.389 526.485C241.319 526.485 260.864 512.983 283.494 497.368C311.511 478.024 343.27 456.108 396.303 450.121C404.461 449.207 412.604 448.736 420.505 448.736C449.907 448.736 471.866 454.922 491.225 460.379C505.04 464.265 516.984 467.637 528.442 467.637C539.014 467.637 548.029 464.808 556.816 458.722C592.861 433.791 601.234 369.215 593.547 316.296C588.061 278.493 572.16 234.819 544.029 225.589C540.686 224.489 537.271 223.946 533.857 223.932V228.261V223.932L533.885 223.946Z" fill="#1D2F6F"/>
<path d="M522.298 234.09C524.984 234.09 527.713 234.504 530.471 235.362C581.817 251.477 602.076 411.318 544.443 452.264C536.057 458.236 527.77 460.422 518.927 460.422C494.382 460.422 465.508 443.521 417.99 443.521C409.804 443.521 401.075 444.021 391.717 445.192C297.366 457.036 270.55 520.87 219.117 520.87C214.503 520.87 209.688 520.356 204.602 519.241C146.94 506.612 100.208 426.791 107.366 354.428C108.666 341.313 114.909 278.222 154.469 262.078C160.141 259.763 165.727 258.735 171.299 258.735C221.975 258.735 270.493 344.913 349.985 344.913C351.728 344.913 353.499 344.87 355.285 344.784C443.292 340.556 478.895 234.076 522.298 234.076M522.298 229.747V234.076V229.747C502.24 229.747 484.681 249.205 464.351 271.736C437.677 301.295 404.489 338.084 355.071 340.456C353.385 340.541 351.671 340.584 349.985 340.584C307.253 340.584 273.15 314.339 243.062 291.18C218.489 272.264 195.273 254.406 171.314 254.406C165.042 254.406 158.827 255.635 152.855 258.078C125.781 269.121 108.109 303.181 103.08 353.999C99.5793 389.431 108.651 428.591 127.967 461.422C147.483 494.582 175.085 517.198 203.688 523.456C208.917 524.599 214.117 525.184 219.132 525.184C243.576 525.184 262.449 511.798 284.308 496.296C311.025 477.352 341.313 455.865 392.26 449.478C400.946 448.393 409.604 447.835 418.004 447.835C445.078 447.835 465.594 453.336 483.695 458.193C496.782 461.708 508.097 464.737 518.927 464.737C529.756 464.737 538.357 461.894 546.943 455.779C581.389 431.291 588.689 368.972 580.632 318.068C574.874 281.694 559.016 239.776 531.756 231.233C528.642 230.261 525.456 229.761 522.284 229.761L522.298 229.747Z" fill="#1D2F6F"/>
<path d="M510.697 239.89C513.169 239.89 515.684 240.248 518.227 241.019C567.802 255.835 589.375 409.232 534.514 449.364C526.299 455.365 518.155 457.551 509.383 457.551C486.381 457.551 459.136 442.606 415.461 442.606C406.846 442.606 397.588 443.192 387.602 444.578C296.552 457.265 271.836 519.598 221.846 519.598C217.66 519.598 213.288 519.155 208.688 518.212C153.083 506.826 107.108 430.706 113.052 361.043C114.123 348.413 119.295 287.68 157.127 271.65C162.741 269.264 168.299 268.207 173.842 268.207C222.046 268.207 269.464 348.728 344.727 348.728C346.884 348.728 349.056 348.656 351.256 348.528C436.034 343.299 468.823 239.905 510.712 239.905M510.712 235.576V239.905V235.576C491.182 235.576 474.423 254.663 455.036 276.765C429.805 305.51 398.403 341.284 350.999 344.213C348.913 344.342 346.813 344.413 344.727 344.413C304.353 344.413 271.636 319.94 242.762 298.338C219.074 280.622 196.701 263.892 173.842 263.892C167.556 263.892 161.37 265.164 155.441 267.678C129.496 278.665 112.923 311.696 108.751 360.686C105.837 394.831 115.08 432.391 134.11 463.737C153.326 495.396 180.2 516.798 207.831 522.456C212.588 523.427 217.303 523.927 221.86 523.927C245.848 523.927 264.049 510.64 285.108 495.268C310.539 476.709 339.341 455.679 388.202 448.864C397.403 447.578 406.575 446.935 415.461 446.935C440.235 446.935 459.322 451.779 476.152 456.036C488.51 459.165 499.168 461.879 509.383 461.879C519.598 461.879 528.67 459.022 537.071 452.864C569.931 428.834 576.131 368.758 567.716 319.868C561.701 284.923 545.872 244.777 519.47 236.89C516.584 236.019 513.626 235.59 510.697 235.59L510.712 235.576Z" fill="#1D2F6F"/>
<path d="M499.097 245.705C501.354 245.705 503.64 246.02 505.983 246.677C553.787 260.206 576.674 407.147 524.57 446.45C516.541 452.507 508.512 454.665 499.782 454.665C478.338 454.665 452.779 441.621 412.89 441.621C403.86 441.621 394.074 442.292 383.459 443.935C295.709 457.493 273.122 518.312 224.546 518.312C220.789 518.312 216.86 517.941 212.745 517.17C159.213 507.026 113.995 434.606 118.695 367.643C119.552 355.5 123.653 297.124 159.741 281.194C165.299 278.736 170.828 277.651 176.357 277.651C222.103 277.651 268.35 352.542 339.427 352.542C341.984 352.542 344.57 352.442 347.185 352.242C428.748 345.999 458.679 245.705 499.082 245.705M499.082 241.376C480.066 241.376 464.122 260.092 445.664 281.765C421.876 309.696 392.26 344.456 346.856 347.928C344.384 348.113 341.884 348.213 339.427 348.213C301.395 348.213 270.064 325.497 242.433 305.453C219.646 288.923 198.13 273.322 176.357 273.322C170.056 273.322 163.884 274.636 157.998 277.236C133.196 288.18 117.709 320.182 114.395 367.329C112.08 400.189 121.495 436.149 140.225 465.994C159.155 496.154 185.286 516.355 211.945 521.398C216.217 522.213 220.46 522.613 224.546 522.613C248.091 522.613 265.607 509.426 285.88 494.168C310.01 476.009 337.355 455.422 384.116 448.193C393.817 446.693 403.503 445.935 412.89 445.935C435.406 445.935 453.036 450.136 468.594 453.836C480.195 456.593 490.21 458.979 499.797 458.979C510.255 458.979 518.97 456.093 527.184 449.893C558.444 426.319 563.573 368.472 554.787 321.611C548.5 288.109 532.699 249.72 507.169 242.505C504.497 241.748 501.797 241.362 499.111 241.362L499.082 241.376Z" fill="#1D2F6F"/>
<path d="M487.496 251.506C489.539 251.506 491.61 251.777 493.725 252.334C539.757 264.564 563.945 405.075 514.612 443.549C506.755 449.678 498.825 451.807 490.153 451.807C470.28 451.807 446.435 440.621 410.304 440.621C400.86 440.621 390.574 441.392 379.316 443.307C294.881 457.736 274.436 517.055 227.232 517.055C223.904 517.055 220.432 516.755 216.803 516.127C165.327 507.226 120.867 438.506 124.353 374.244C124.981 362.6 128.025 306.567 162.37 290.752C167.885 288.209 173.371 287.094 178.9 287.094C222.218 287.094 267.221 356.385 334.155 356.385C337.112 356.385 340.113 356.257 343.156 355.971C421.491 348.713 448.564 251.491 487.496 251.506M487.496 247.177C468.98 247.177 453.85 265.535 436.335 286.78C413.976 313.896 386.159 347.628 342.77 351.656C339.913 351.928 337.027 352.056 334.169 352.056C298.438 352.056 268.521 331.083 242.134 312.582C220.26 297.252 199.587 282.765 178.914 282.765C172.599 282.765 166.428 284.137 160.584 286.823C136.911 297.724 122.524 328.697 120.067 374.015C118.352 405.589 127.939 439.949 146.369 468.309C164.999 496.968 190.415 515.955 216.089 520.398C219.875 521.056 223.632 521.384 227.247 521.384C250.363 521.384 267.193 508.283 286.68 493.125C309.51 475.352 335.384 455.222 380.059 447.578C390.402 445.807 400.303 444.95 410.318 444.95C430.591 444.95 446.778 448.521 461.051 451.679C471.88 454.079 481.238 456.136 490.167 456.136C500.64 456.136 509.255 453.222 517.284 446.964C546.943 423.834 550.987 368.243 541.829 323.397C535.285 291.323 519.498 254.72 494.839 248.163C492.41 247.52 489.939 247.191 487.496 247.191V247.177Z" fill="#1D2F6F"/>
<path d="M475.895 257.292C477.724 257.292 479.581 257.52 481.481 257.992C525.742 268.921 551.244 402.989 504.669 440.635C496.982 446.85 489.153 448.964 480.481 448.964C462.179 448.964 440.135 439.563 407.718 439.563C397.889 439.563 387.102 440.435 375.173 442.678C294.038 458.008 275.779 515.812 229.918 515.812C227.018 515.812 224.018 515.584 220.875 515.098C171.471 507.44 127.767 442.406 130.025 380.859C130.439 369.701 132.396 316.025 164.999 300.309C170.456 297.681 175.914 296.523 181.443 296.523C222.36 296.523 266.05 360.257 328.883 360.257C332.226 360.257 335.655 360.071 339.113 359.7C414.219 351.414 438.406 257.306 475.895 257.306M475.895 252.977C457.879 252.977 443.564 270.979 426.977 291.809C404.975 319.468 380.03 350.828 338.641 355.4C335.412 355.757 332.126 355.942 328.883 355.942C295.423 355.942 266.935 336.698 241.791 319.725C220.832 305.567 201.03 292.209 181.443 292.209C175.1 292.209 168.928 293.623 163.127 296.423C140.583 307.281 127.296 337.212 125.71 380.702C124.596 410.975 134.368 443.749 152.498 470.609C170.842 497.768 195.515 515.541 220.217 519.37C223.503 519.884 226.775 520.141 229.918 520.141C252.634 520.141 268.778 507.126 287.466 492.053C308.996 474.68 333.412 454.993 375.987 446.935C386.816 444.892 397.203 443.892 407.732 443.892C425.819 443.892 440.521 446.878 453.507 449.507C463.551 451.536 472.223 453.307 480.509 453.307C491.025 453.307 499.568 450.35 507.412 444.021C535.471 421.333 538.428 367.986 528.899 325.169C522.084 294.523 506.326 259.692 482.538 253.82C480.338 253.277 478.109 253.006 475.909 253.006L475.895 252.977Z" fill="#1D2F6F"/>
<path d="M464.294 263.078C465.908 263.078 467.565 263.264 469.237 263.635C511.726 273.264 538.542 400.889 494.739 437.72C487.21 444.049 479.466 446.121 470.78 446.121C454.079 446.121 433.906 438.42 405.16 438.42C394.945 438.42 383.659 439.392 371.058 442.021C293.237 458.279 277.179 514.555 232.604 514.555C230.147 514.555 227.604 514.384 224.961 514.026C177.614 507.612 134.668 446.278 135.711 387.431C135.896 376.758 136.796 325.454 167.656 309.839C173.056 307.11 178.5 305.91 184.014 305.91C222.532 305.91 264.849 364.129 323.625 364.129C327.383 364.129 331.197 363.886 335.083 363.386C406.975 354.057 428.248 263.035 464.308 263.049M464.308 258.72C446.764 258.72 433.277 276.365 417.647 296.795C397.146 323.597 373.915 353.971 334.541 359.086C330.926 359.557 327.269 359.786 323.64 359.786C292.437 359.786 265.364 342.256 241.49 326.783C221.46 313.811 202.544 301.552 184.029 301.552C177.642 301.552 171.485 303.024 165.713 305.938C144.311 316.768 132.125 345.67 131.396 387.316C130.882 416.304 140.825 447.478 158.67 472.837C176.714 498.497 200.673 515.055 224.389 518.27C227.175 518.641 229.947 518.841 232.618 518.841C254.977 518.841 270.407 505.883 288.294 490.896C308.539 473.923 331.483 454.679 371.958 446.221C383.273 443.864 394.145 442.706 405.175 442.706C421.09 442.706 434.306 445.121 445.978 447.264C455.207 448.95 463.179 450.407 470.794 450.407C481.395 450.407 489.881 447.421 497.539 440.992C523.998 418.762 525.856 367.643 515.955 326.854C508.869 297.652 493.139 264.592 470.208 259.392C468.251 258.949 466.265 258.72 464.308 258.72V258.72Z" fill="#1D2F6F"/>
<path d="M452.693 268.85C454.093 268.85 455.536 268.993 456.993 269.293C497.711 277.636 525.842 398.817 484.796 434.806C477.423 441.263 469.737 443.321 460.979 443.321C445.907 443.321 427.691 437.249 402.618 437.249C392.031 437.249 380.23 438.335 366.915 441.406C292.395 458.608 278.608 513.369 235.247 513.369C233.233 513.369 231.161 513.255 229.018 513.012C183.729 507.84 141.554 450.207 141.354 394.06C141.326 383.888 141.154 334.926 170.271 319.411C175.614 316.568 181.043 315.325 186.572 315.325C222.732 315.325 263.564 368.086 318.325 368.086C322.468 368.086 326.712 367.786 331.026 367.129C399.689 356.757 418.019 268.836 452.693 268.85M452.693 264.521C435.606 264.521 422.933 281.822 408.275 301.852C389.288 327.797 367.758 357.2 330.383 362.843C326.397 363.443 322.34 363.743 318.325 363.743C289.337 363.743 263.721 347.899 241.119 333.926C222.032 322.125 204.002 310.982 186.572 310.982C180.129 310.982 173.957 312.525 168.242 315.568C147.983 326.354 136.897 354.228 137.039 394.045C137.139 421.748 147.255 451.321 164.799 475.18C182.557 499.34 205.788 514.669 228.532 517.269C230.804 517.527 233.061 517.655 235.262 517.655C257.292 517.655 272.022 504.754 289.094 489.824C308.039 473.237 329.512 454.45 367.901 445.578C379.687 442.864 391.045 441.535 402.618 441.535C416.404 441.535 428.105 443.421 438.435 445.092C446.807 446.45 454.05 447.607 460.979 447.607C471.723 447.607 480.195 444.564 487.639 438.02C512.483 416.233 513.255 367.358 502.983 328.597C495.625 300.824 479.909 269.536 457.851 265.021C456.136 264.664 454.393 264.492 452.693 264.492V264.521Z" fill="#1D2F6F"/>
<path d="M441.106 274.622C442.292 274.622 443.506 274.736 444.749 274.95C483.695 281.994 513.141 396.731 474.852 431.891C467.623 438.535 459.951 440.535 451.079 440.535C437.677 440.535 421.562 435.992 400.132 435.992C389.188 435.992 376.844 437.177 362.786 440.778C291.58 458.965 280.094 512.183 237.89 512.183C236.333 512.183 234.733 512.112 233.09 511.955C189.872 508.04 148.44 454.093 147.026 400.646C146.769 390.959 145.526 344.356 172.914 328.955C178.2 325.983 183.615 324.697 189.172 324.697C222.989 324.697 262.249 372.058 313.053 372.058C317.611 372.058 322.254 371.672 326.997 370.844C392.417 359.4 407.789 274.607 441.106 274.607M441.106 270.279C424.448 270.279 412.618 287.251 398.932 306.896C381.444 331.969 361.629 360.4 326.269 366.586C321.925 367.343 317.482 367.729 313.068 367.729C286.266 367.729 262.121 353.557 240.805 341.056C222.675 330.412 205.559 320.368 189.186 320.368C182.572 320.368 176.571 321.94 170.814 325.183C151.698 335.941 141.711 362.772 142.726 400.76C143.426 427.177 153.726 455.136 170.985 477.509C188.458 500.154 210.96 514.284 232.718 516.255C234.461 516.412 236.219 516.498 237.905 516.498C259.649 516.498 273.679 503.64 289.909 488.753C307.567 472.566 327.569 454.222 363.872 444.949C376.115 441.821 387.974 440.306 400.146 440.306C412.318 440.306 421.976 441.706 430.934 442.935C438.106 443.921 444.878 444.849 451.079 444.849C462.179 444.849 470.423 441.835 477.781 435.077C501.025 413.718 500.682 367.1 490.039 330.369C482.41 304.038 466.708 274.536 445.521 270.693C444.049 270.421 442.564 270.293 441.106 270.293V270.279Z" fill="#1D2F6F"/>
<path d="M429.505 280.379C430.477 280.379 431.491 280.451 432.506 280.608C469.68 286.351 500.425 394.645 464.922 428.991C457.808 435.863 450.093 437.792 441.006 437.792C429.377 437.792 415.504 434.634 397.774 434.634C386.459 434.634 373.558 435.92 358.671 440.135C290.78 459.336 281.651 511.026 240.505 511.026C239.419 511.026 238.304 510.983 237.176 510.912C196.015 508.24 155.355 457.993 152.712 407.261C152.226 398.06 149.926 353.814 175.571 338.527C180.8 335.412 186.2 334.084 191.801 334.084C223.303 334.084 260.863 376.115 307.753 376.115C312.725 376.115 317.796 375.644 322.968 374.601C385.159 362.086 397.517 280.379 429.52 280.394M429.52 276.065C413.261 276.065 402.289 292.709 389.574 311.982C373.601 336.198 355.485 363.643 322.125 370.358C317.411 371.301 312.582 371.787 307.767 371.787C283.108 371.787 260.449 359.257 240.462 348.199C223.318 338.712 207.116 329.755 191.815 329.755C185.115 329.755 179.071 331.412 173.371 334.812C155.398 345.542 146.526 371.344 148.412 407.489C149.726 432.606 160.198 458.979 177.171 479.838C194.358 500.982 216.131 513.883 236.919 515.226C238.133 515.312 239.347 515.341 240.533 515.341C262.064 515.341 275.365 502.511 290.766 487.639C307.124 471.852 325.669 453.95 359.886 444.278C372.572 440.692 384.973 438.949 397.817 438.949C407.375 438.949 415.933 439.906 423.476 440.749C429.72 441.449 435.606 442.106 441.049 442.106C448.764 442.106 458.779 440.963 467.966 432.091C489.596 411.175 488.153 366.8 477.123 332.083C469.208 307.181 453.522 279.465 433.206 276.322C431.991 276.136 430.748 276.036 429.548 276.036V280.365V276.036L429.52 276.065Z" fill="#1D2F6F"/>
<path d="M417.919 286.123C418.69 286.123 419.462 286.165 420.262 286.265C455.65 290.709 487.724 392.574 454.979 426.077C447.95 433.277 440.106 435.092 430.648 435.092C421.19 435.092 409.561 433.177 395.617 433.177C383.902 433.177 370.372 434.52 354.542 439.492C289.966 459.751 283.251 509.897 243.062 509.897C242.462 509.897 241.862 509.898 241.248 509.869C202.145 508.44 162.241 461.894 158.37 413.861C157.67 405.161 154.298 363.272 178.2 348.07C183.372 344.784 188.786 343.399 194.43 343.399C223.646 343.399 259.378 380.173 302.41 380.173C307.796 380.173 313.31 379.601 318.925 378.301C377.887 364.686 387.188 286.108 417.933 286.108M417.933 281.779C402.046 281.779 391.931 298.109 380.201 317.011C365.729 340.37 349.313 366.829 317.954 374.072C312.882 375.244 307.653 375.83 302.41 375.83C279.865 375.83 258.72 364.9 240.076 355.271C223.932 346.927 208.688 339.055 194.43 339.055C187.601 339.055 181.529 340.798 175.871 344.399C159.041 355.1 151.298 379.887 154.055 414.176C155.97 438.006 166.642 462.765 183.315 482.138C200.216 501.768 221.275 513.441 241.076 514.169C241.748 514.198 242.405 514.212 243.048 514.212C264.421 514.212 276.993 501.383 291.537 486.51C306.61 471.123 323.697 453.679 355.814 443.607C369.129 439.435 381.773 437.492 395.603 437.492C403.032 437.492 409.875 438.063 415.919 438.563C421.119 438.992 426.048 439.406 430.634 439.406C439.206 439.406 449.178 438.178 458.05 429.091C478.066 408.618 475.509 366.472 464.108 333.798C455.922 310.339 440.235 284.408 420.79 281.965C419.833 281.851 418.862 281.779 417.919 281.779H417.933Z" fill="#1D2F6F"/>
<path d="M406.332 291.837C406.875 291.837 407.447 291.866 408.004 291.923C441.621 295.08 475.009 390.488 445.021 423.176C437.978 430.848 429.834 432.463 419.733 432.463C412.304 432.463 403.818 431.591 393.931 431.591C381.745 431.591 367.444 432.92 350.385 438.863C289.109 460.222 284.923 508.826 245.534 508.826C245.448 508.826 245.362 508.826 245.291 508.826C208.26 508.64 169.114 465.794 164.013 420.462C163.085 412.247 158.641 372.715 180.8 357.628C185.915 354.142 191.344 352.714 197.087 352.714C224.046 352.714 257.792 384.345 297.009 384.345C302.838 384.345 308.796 383.645 314.854 382.044C370.572 367.315 376.759 291.852 406.318 291.852M406.318 287.523C390.774 287.523 381.516 303.553 370.801 322.111C357.829 344.599 343.113 370.086 313.754 377.858C308.339 379.287 302.71 380.016 297.009 380.016C276.536 380.016 256.949 370.658 239.662 362.414C224.547 355.2 210.288 348.399 197.087 348.399C190.087 348.399 183.972 350.256 178.371 354.057C162.699 364.729 156.07 388.488 159.713 420.948C162.242 443.478 173.1 466.651 189.487 484.495C206.117 502.611 226.447 513.055 245.262 513.155H245.534C266.85 513.155 278.679 500.297 292.366 485.396C306.153 470.409 321.769 453.407 351.799 442.935C369.901 436.62 384.502 435.892 393.917 435.892C399.103 435.892 403.846 436.134 408.433 436.377C412.404 436.577 416.162 436.777 419.719 436.777C429.42 436.777 439.578 435.477 448.193 426.091C466.58 406.046 462.908 366.158 451.122 335.512C442.65 313.496 426.977 289.351 408.39 287.608C407.69 287.537 407.004 287.508 406.318 287.508V287.523Z" fill="#1D2F6F"/>
<path d="M394.774 297.552C395.103 297.552 395.431 297.552 395.774 297.581C427.62 299.438 462.322 388.402 435.092 420.262C427.777 428.82 418.833 429.948 407.261 429.948C403.118 429.948 398.646 429.805 393.788 429.805C380.902 429.805 365.343 430.82 346.27 438.235C289.009 460.494 286.78 506.669 249.377 507.797C248.92 507.797 248.448 507.812 247.991 507.812C213.403 507.812 175.943 469.137 169.699 427.062C168.556 419.333 163.042 382.159 183.457 367.172C188.515 363.472 193.987 361.971 199.844 361.971C224.561 361.971 256.135 388.559 291.595 388.559C297.881 388.559 304.31 387.716 310.825 385.745C363.3 369.872 366.315 297.523 394.76 297.538M394.76 293.209C379.487 293.209 371.129 308.953 361.443 327.197C349.956 348.828 336.941 373.329 309.582 381.616C303.824 383.359 297.767 384.245 291.595 384.245C273.165 384.245 255.935 376.758 239.276 369.515C225.246 363.414 211.988 357.657 199.844 357.657C192.63 357.657 186.429 359.628 180.9 363.7C166.385 374.358 160.884 397.089 165.427 427.705C171.985 471.894 211.331 512.14 247.991 512.14C248.505 512.14 249.006 512.14 249.506 512.112C269.893 511.498 280.708 498.868 293.223 484.253C305.724 469.666 319.883 453.122 347.828 442.264C366.272 435.092 381.416 434.12 393.788 434.12C396.289 434.12 398.689 434.163 400.989 434.191C403.161 434.22 405.246 434.263 407.261 434.263C418.619 434.263 429.534 433.406 438.378 423.062C455.136 403.446 450.35 365.8 438.163 337.198C429.405 316.625 413.733 294.295 396.017 293.252C395.603 293.223 395.174 293.209 394.774 293.209H394.76Z" fill="#1D2F6F"/>
<path d="M383.216 303.224C383.316 303.224 383.416 303.224 383.516 303.224C413.59 303.781 449.607 386.316 425.148 417.347C409.99 436.577 385.159 418.876 342.127 437.592C289.009 460.694 288.637 504.283 253.435 506.74C252.42 506.812 251.392 506.84 250.377 506.84C218.232 506.84 182.672 472.352 175.357 433.649C173.985 426.405 167.413 391.588 186.086 376.716C191.072 372.744 196.63 371.172 202.673 371.172C225.147 371.172 254.349 392.888 286.08 392.888C292.881 392.888 299.795 391.888 306.796 389.474C356.028 372.429 355.785 303.21 383.216 303.224M383.216 298.895C368.158 298.895 360.7 314.382 352.071 332.312C342.084 353.071 330.755 376.601 305.381 385.388C299.195 387.531 292.881 388.574 286.08 388.574C269.664 388.574 254.006 382.502 238.862 376.616C225.947 371.601 213.746 366.858 202.673 366.858C195.173 366.858 188.872 368.972 183.4 373.344C170.042 383.988 165.685 405.689 171.114 434.463C178.843 475.323 215.874 511.169 250.377 511.169C251.506 511.169 252.634 511.126 253.735 511.055C273.036 509.712 282.78 497.368 294.052 483.081C305.267 468.894 317.968 452.807 343.842 441.549C364.229 432.677 380.487 432.291 393.531 431.991C407.504 431.663 419.576 431.377 428.52 420.019C443.65 400.832 437.721 365.429 425.148 338.87C416.09 319.754 400.418 299.209 383.588 298.895H383.202H383.216Z" fill="#1D2F6F"/>
<path d="M371.686 308.882C399.932 308.882 436.806 384.388 415.204 414.447C401.76 433.163 377.673 417.562 337.998 436.963C289.023 460.922 290.509 501.911 257.506 505.711C255.92 505.897 254.32 505.983 252.72 505.983C222.96 505.983 189.343 475.595 181.028 440.278C179.443 433.534 171.785 401.06 188.729 386.288C193.658 381.987 199.33 380.344 205.616 380.344C225.861 380.344 252.391 397.36 280.408 397.36C287.78 397.36 295.252 396.188 302.738 393.202C348.485 375.044 345.156 309.567 371.258 308.882C371.401 308.882 371.529 308.882 371.672 308.882M371.672 304.553C371.501 304.553 371.329 304.553 371.158 304.553C356.585 304.924 350.142 319.997 342.684 337.441C334.183 357.328 324.54 379.873 301.152 389.174C294.637 391.76 287.851 393.017 280.408 393.017C265.978 393.017 251.963 388.288 238.419 383.702C226.704 379.744 215.631 376.001 205.616 376.001C197.744 376.001 191.286 378.287 185.886 383.002C173.699 393.631 170.485 414.318 176.828 441.235C181.043 459.093 191.372 476.252 205.93 489.539C220.374 502.725 237.433 510.283 252.734 510.283C254.52 510.283 256.292 510.183 258.02 509.983C276.222 507.897 284.894 495.839 294.937 481.881C304.867 468.094 316.111 452.464 339.912 440.821C358.671 431.648 373.901 430.605 386.145 429.777C399.331 428.877 410.718 428.105 418.733 416.947C432.791 397.374 424.405 364.343 412.947 342.013C403.66 323.897 387.945 304.553 371.701 304.553H371.672Z" fill="#1D2F6F"/>
</svg>
